<?xml version="1.0" encoding="UTF-8" standalone="no"?>
<!-- Created with Inkscape (http://www.inkscape.org/) -->
<svg xmlns:dc="http://purl.org/dc/elements/1.1/" xmlns:cc="http://creativecommons.org/ns#" xmlns:rdf="http://www.w3.org/1999/02/22-rdf-syntax-ns#" xmlns:svg="http://www.w3.org/2000/svg" xmlns="http://www.w3.org/2000/svg" xmlns:sodipodi="http://sodipodi.sourceforge.net/DTD/sodipodi-0.dtd" xmlns:inkscape="http://www.inkscape.org/namespaces/inkscape" viewBox="0 0 112.25824 75.532445" id="svg2" version="1.1" inkscape:version="0.91 r13725" sodipodi:docname="Bank-lineart.svg">
  <title id="title4779">bench</title>
  <defs id="defs4"/>
  <sodipodi:namedview id="base" pagecolor="#ffffff" bordercolor="#666666" borderopacity="1.0" inkscape:pageopacity="0.0" inkscape:pageshadow="2" inkscape:zoom="2.8" inkscape:cx="-31.176572" inkscape:cy="14.414623" inkscape:document-units="mm" inkscape:current-layer="layer1" showgrid="false" inkscape:snap-global="false" fit-margin-top="1" fit-margin-right="1" fit-margin-bottom="1" fit-margin-left="1" inkscape:window-width="1215" inkscape:window-height="903" inkscape:window-x="654" inkscape:window-y="297" inkscape:window-maximized="0"/>
  <metadata id="metadata7">
    <rdf:RDF>
      <cc:Work rdf:about="">
        <dc:format>image/svg+xml</dc:format>
        <dc:type rdf:resource="http://purl.org/dc/dcmitype/StillImage"/>
        <dc:title>bench</dc:title>
        <dc:subject>
          <rdf:Bag>
            <rdf:li>bench</rdf:li>
            <rdf:li>furniture</rdf:li>
            <rdf:li>park</rdf:li>
            <rdf:li>garden</rdf:li>
            <rdf:li>bank</rdf:li>
            <rdf:li>Möbel</rdf:li>
            <rdf:li>sit</rdf:li>
            <rdf:li>sitz</rdf:li>
            <rdf:li/>
          </rdf:Bag>
        </dc:subject>
        <dc:description>line art bench</dc:description>
        <dc:creator>
          <cc:Agent>
            <dc:title>Frank Tremmel</dc:title>
          </cc:Agent>
        </dc:creator>
        <dc:date>2015-02-05</dc:date>
        <cc:license rdf:resource="http://creativecommons.org/publicdomain/zero/1.0/"/>
      </cc:Work>
      <cc:License rdf:about="http://creativecommons.org/publicdomain/zero/1.0/">
        <cc:permits rdf:resource="http://creativecommons.org/ns#Reproduction"/>
        <cc:permits rdf:resource="http://creativecommons.org/ns#Distribution"/>
        <cc:permits rdf:resource="http://creativecommons.org/ns#DerivativeWorks"/>
      </cc:License>
    </rdf:RDF>
  </metadata>
  <g inkscape:label="Ebene 1" inkscape:groupmode="layer" id="layer1" transform="translate(-272.88518,-264.4503)">
    <path style="fill:transparent;fill-rule:evenodd;stroke:#000000;stroke-width:1.77165353;stroke-linecap:butt;stroke-linejoin:miter;stroke-miterlimit:4;stroke-dasharray:none;stroke-opacity:1" d="m 314.375,282.71935 c 0,0 -2.03515,14.84752 -2.14286,22.32142 -0.0898,6.23353 1.25,18.66072 1.25,18.66072 0.80357,3.4642 1.60715,3.5218 2.41072,3.75 l 3.03571,-0.0893 c 0,0 -1.6484,-13.96388 -1.875,-20.98214 -0.45189,-13.99619 2.14286,-23.39286 2.14286,-23.39286 z" id="path4151" inkscape:connector-curvature="0" sodipodi:nodetypes="cscccscc"/>
    <path style="fill:transparent;fill-rule:evenodd;stroke:#000000;stroke-width:1.77165353;stroke-linecap:butt;stroke-linejoin:miter;stroke-miterlimit:4;stroke-dasharray:none;stroke-opacity:1" d="m 319.55357,282.63006 c -0.43449,0.43449 -3.3219,11.6051 -2.5,24.10715 0.45431,6.91059 1.78572,20.08928 1.78572,20.08928 0.42977,1.21069 1.65311,0.0407 2.76785,-0.80357 0.73614,-0.51386 -1.43127,-13.1127 -1.60714,-19.82142 -0.36149,-13.78959 2.5,-23.39287 2.5,-23.39287 z" id="path4153" inkscape:connector-curvature="0" sodipodi:nodetypes="csccscc"/>
    <path style="fill:transparent;fill-rule:evenodd;stroke:#000000;stroke-width:1.77165353;stroke-linecap:butt;stroke-linejoin:miter;stroke-miterlimit:4;stroke-dasharray:none;stroke-opacity:1" d="m 365.44643,325.04077 c 0.54925,1.6512 0.7255,3.72868 2.85714,3.57143 1.45238,-0.0298 0.23812,-0.0595 3.39286,-0.0893 0.84566,0.0663 -0.18306,-2.18133 -1.11613,-6.34925 -1.01358,-4.5276 -1.99467,-11.20871 -2.4553,-16.68647 -0.5602,-6.66178 0.27934,-19.35441 1.78572,-20 l -5.625,0 c 0,0 -0.69368,14.40747 -0.44643,21.60715 0.20613,6.00255 1.60714,17.94644 1.60714,17.94644 z" id="path4155" inkscape:connector-curvature="0" sodipodi:nodetypes="cccssccsc"/>
    <path style="fill:transparent;fill-rule:evenodd;stroke:#000000;stroke-width:1.77165353;stroke-linecap:butt;stroke-linejoin:miter;stroke-miterlimit:4;stroke-dasharray:none;stroke-opacity:1" d="m 371.875,327.18363 c 0.1477,1.34095 0.83638,1.87043 2.41072,1.07143 0.81155,-0.40868 1.52026,-0.92021 1.16071,-2.5 l -0.17857,-3.03571 c -0.57603,-2.20527 -1.39661,-4.25296 -2.14286,-6.69643 -1.1844,-3.87809 -1.60411,-7.99592 -1.78571,-12.05357 -0.27724,-6.19457 1.07143,-18.57143 1.07143,-18.57143 l -2.85715,0 c 0,0 -2.16556,7.21076 -1.42857,18.83928 0.34449,5.43561 1.04253,11.5408 2.14286,16.875 0.42294,2.05035 1.60714,6.07143 1.60714,6.07143 z" id="path4157" inkscape:connector-curvature="0" sodipodi:nodetypes="ccccssccssc"/>
    <path style="fill:transparent;fill-rule:evenodd;stroke:#000000;stroke-width:1.77165353;stroke-linecap:butt;stroke-linejoin:miter;stroke-miterlimit:4;stroke-dasharray:none;stroke-opacity:1" d="m 307.32143,295.93363 c -1.90476,-0.21302 -3.80953,-0.26211 -5.71429,0 l -19.82143,1.96429 c -5.76037,0.81178 -2.04468,1.38053 -1.07142,1.78571 0,0 19.61092,2.5861 29.46428,3.39286 12.17615,0.99694 36.60715,1.78571 36.60715,1.78571 l 25.35714,-3.92857 c 2.88015,-0.73699 2.22797,-1.16682 -0.35714,-1.42857 -10.83202,-0.4602 -21.01108,-1.58626 -29.28572,-1.96429 z" id="path4159" inkscape:connector-curvature="0" sodipodi:nodetypes="ccccscccsc"/>
    <path style="fill:transparent;fill-rule:evenodd;stroke:#000000;stroke-width:1.77165353;stroke-linecap:butt;stroke-linejoin:miter;stroke-miterlimit:4;stroke-dasharray:none;stroke-opacity:1" d="m 278.125,299.23721 c -0.35714,0.13989 -0.44643,0.25246 -0.80357,1.33928 l 0.17857,3.57143 c 0.23618,1.54991 1.539,1.81986 2.94643,1.96428 0,0 22.68995,1.77789 34.01786,2.85715 9.50478,0.90556 28.48214,3.03571 28.48214,3.03571 2.73504,-0.048 2.73813,-0.13594 3.75,-0.17857 l -0.26786,-6.96429 c 0,0 -26.41619,-0.74611 -39.55357,-2.05357 -21.07711,-2.09764 -28.5545,-4.14098 -28.75,-3.57142 z" id="path4161" inkscape:connector-curvature="0" sodipodi:nodetypes="ccccscccsc"/>
    <path style="fill:transparent;fill-rule:evenodd;stroke:#000000;stroke-width:1.94881892;stroke-linecap:butt;stroke-linejoin:miter;stroke-miterlimit:4;stroke-dasharray:none;stroke-opacity:1" d="m 346.69643,304.8622 c 9.38655,-1.2029 18.50011,-2.81531 27.41071,-4.73214 0.81788,-0.41552 0.95216,0.53615 1.07143,1.51786 l 0,5.08928 c 0.40478,0.99102 -1.62713,1.18348 -3.66071,1.51786 l -24.91071,3.48214 c -0.36944,-1.69287 -0.20922,-4.18022 0.0893,-6.875 z" id="path4163" inkscape:connector-curvature="0" sodipodi:nodetypes="ccccccc"/>
    <path style="fill:transparent;fill-rule:evenodd;stroke:#000000;stroke-width:1.77165353;stroke-linecap:butt;stroke-linejoin:miter;stroke-miterlimit:4;stroke-dasharray:none;stroke-opacity:1" d="m 282.96898,306.36455 c 0.10395,8.75312 -1.64341,15.28468 -3.15672,22.09709 -0.58443,1.42622 0.015,1.6686 0.75761,1.76776 l 3.57251,0.43111 c 1.33412,-7.83506 3.50286,-15.47602 3.62483,-23.91715 z" id="path4165" inkscape:connector-curvature="0" sodipodi:nodetypes="cccccc"/>
    <path style="fill:transparent;fill-rule:evenodd;stroke:#000000;stroke-width:1.77165353;stroke-linecap:butt;stroke-linejoin:miter;stroke-miterlimit:4;stroke-dasharray:none;stroke-opacity:1" d="m 287.89348,306.74336 3.6618,0.37881 c -0.61501,8.03599 -1.19863,15.2932 -3.53554,21.71827 -1.11656,2.01083 -2.46211,2.36832 -3.91434,1.6938 2.0442,-8.25641 3.31846,-15.82201 3.78808,-23.79088 z" id="path4167" inkscape:connector-curvature="0" sodipodi:nodetypes="ccccc"/>
    <path style="fill:transparent;fill-rule:evenodd;stroke:#000000;stroke-width:1.77165353;stroke-linecap:butt;stroke-linejoin:miter;stroke-miterlimit:4;stroke-dasharray:none;stroke-opacity:1" d="m 339.53753,311.79412 c -1.51728,6.06296 -2.25449,13.6187 -4.41942,21.08693 -0.29779,1.22376 0.31454,1.5374 1.01015,1.76777 l 2.27284,0.75761 c 0.69844,-0.0105 1.8886,0.88249 2.27285,-1.64149 0.42089,-7.36518 1.72568,-12.76022 4.29315,-21.71828 z" id="path4169" inkscape:connector-curvature="0" sodipodi:nodetypes="ccccccc"/>
    <path style="fill:transparent;fill-rule:evenodd;stroke:#000000;stroke-width:1.77165353;stroke-linecap:butt;stroke-linejoin:miter;stroke-miterlimit:4;stroke-dasharray:none;stroke-opacity:1" d="m 344.96709,312.17293 c -4.02216,13.62001 -3.84096,15.67441 -4.54568,22.47589 -1.29456,1.53753 1.99911,-0.13668 3.78807,-0.75761 1.97252,-0.83566 2.03528,-2.43522 2.39911,-3.91435 -0.56354,-6.73981 1.1574,-12.46559 2.52538,-18.56155 z" id="path4171" inkscape:connector-curvature="0" sodipodi:nodetypes="cccccc"/>
    <path style="fill:transparent;fill-rule:evenodd;stroke:#000000;stroke-width:1.77165353;stroke-linecap:butt;stroke-linejoin:miter;stroke-miterlimit:4;stroke-dasharray:none;stroke-opacity:1" d="m 347.23994,321.2643 -0.63135,3.91434 21.46574,-3.6618 c 2.82702,-0.81776 0.86487,-5.22328 0.12627,-4.54569 z" id="path4173" inkscape:connector-curvature="0" sodipodi:nodetypes="ccccc"/>
    <path style="fill:transparent;fill-rule:evenodd;stroke:#000000;stroke-width:1.77165353;stroke-linecap:butt;stroke-linejoin:miter;stroke-miterlimit:4;stroke-dasharray:none;stroke-opacity:1" d="m 312.13714,311.92038 c 3.0407,-0.49433 3.32027,2.99679 0.50507,3.53554 l -21.84455,2.90419 c 0.23149,-1.43105 0.46299,-2.8621 0.69448,-4.29315 z" id="path4175" inkscape:connector-curvature="0" sodipodi:nodetypes="ccccc"/>
    <path style="fill:transparent;fill-rule:evenodd;stroke:#000000;stroke-width:1.77165353;stroke-linecap:butt;stroke-linejoin:miter;stroke-miterlimit:4;stroke-dasharray:none;stroke-opacity:1" d="m 312.76786,268.88006 c 0,0 17.91485,0.52083 26.875,0.625 11.30876,0.13148 33.39286,0 33.39286,0 1.18621,0.1977 4.18373,-1.18993 3.39285,2.5 l -2.14286,15 c -0.54398,1.45172 0.4748,1.75556 -1.25,1.875 0,0 -22.81627,-0.14349 -34.10714,-0.80357 -8.96391,-0.52405 -26.78571,-2.85714 -26.78571,-2.85714 -0.90599,-0.25977 -2.12631,0.0306 -2.14286,-1.78572 l 0,-11.78571 c 0.0715,-2.34112 1.28025,-2.78688 2.76786,-2.76786 z" id="path4147" inkscape:connector-curvature="0" sodipodi:nodetypes="csccccscccc"/>
    <path style="fill:transparent;fill-rule:evenodd;stroke:#000000;stroke-width:1.77165353;stroke-linecap:butt;stroke-linejoin:round;stroke-miterlimit:4;stroke-dasharray:none;stroke-opacity:1" d="m 376.07143,269.50506 2.94643,0 c 0.7704,0.48396 1.58633,0.28847 1.69643,2.58929 l -2.41072,14.64285 c -0.22976,1.08895 -0.60141,2.04577 -1.78571,2.14286 -1.41057,0.2727 -2.50746,0.46253 -2.5,-0.44643 0.77381,-6.39881 3.36291,-17.73764 2.05357,-18.92857 z" id="path4149" inkscape:connector-curvature="0" sodipodi:nodetypes="ccccccc"/>
  </g>
</svg>
